<?xml version="1.0" encoding="utf-8"?>
<!-- Generator: Adobe Illustrator 23.0.6, SVG Export Plug-In . SVG Version: 6.00 Build 0)  -->
<svg version="1.1" id="Layer_1" xmlns="http://www.w3.org/2000/svg" xmlns:xlink="http://www.w3.org/1999/xlink" x="0px" y="0px"
	 viewBox="0 0 1024 1024" style="enable-background:new 0 0 1024 1024;" xml:space="preserve">
<style type="text/css">
	.st0{fill:#EC3454;}
</style>
<g>
	<path class="st0" d="M550,300.5c-23.6,0-42.8,19.2-42.8,42.8v83.5H550h21.4h21.4v-83.5C592.8,319.7,573.6,300.5,550,300.5z"/>
	<path class="st0" d="M357.3,491.1v147.7c0,23.6,19.2,42.8,42.8,42.8c23.6,0,42.8-19.2,42.8-42.8V491.1h-64.2H357.3z"/>
	<path class="st0" d="M512.5,4C231.7,4,4,231.7,4,512.5S231.7,1021,512.5,1021S1021,793.3,1021,512.5S793.3,4,512.5,4z M699.8,745.9
		c-59,0-107.1-48-107.1-107.1V491.1h-21.4H550h-42.8V641c0,0.7-0.2,1.4-0.2,2.2c-2.3,57-49.3,102.7-106.8,102.7
		c-59,0-107.1-48-107.1-107.1V491.1h-42.8c-17.7,0-32.1-14.4-32.1-32.1c0-17.7,14.4-32.1,32.1-32.1H293v-85.6
		c0-17.7,14.4-32.1,32.1-32.1s32.1,14.4,32.1,32.1v85.6h21.4h64.2v-83.5c0-59,48-107.1,107.1-107.1c58.3,0,105.9,46.9,107,104.9h0
		v85.6h85.6c17.7,0,32.1,14.4,32.1,32.1c0,17.7-14.4,32.1-32.1,32.1H657v147.7c0,23.6,19.2,42.8,42.8,42.8s42.8-19.2,42.8-42.8
		c0-17.7,14.4-32.1,32.1-32.1c17.7,0,32.1,14.4,32.1,32.1C806.9,697.8,758.9,745.9,699.8,745.9z"/>
</g>
</svg>
